# xmcd CD database file
#
# Track frame offsets:
#	150
#	14801
#	32988
#	54411
#	76893
#	96346
#	114321
#	139187
#	152860
#	165406
#	190654
#	210897
#	228655
#	244790
#	270426
#
# Disc length: 4040 seconds
#
# Revision: 1
# Processed by: cddbd v1.4PL0 Copyright (c) Steve Scherf et al.
# Submitted via: CDex 1.50beta10
#
DISCID=c10fc60f
DTITLE=Heikki Silvennoinen - Blues Blue Sky
DYEAR=1999
DGENRE=Blues
TTITLE0=Steady Rollin' Man
TTITLE1=Strange Brew
TTITLE2=Blow Wind Blow Wind
TTITLE3=Behind The Bars
TTITLE4=Sitting On Top Of The World
TTITLE5=The Bear
TTITLE6=Angel So Blue
TTITLE7=Blues Stay Away
TTITLE8=Wakin' Man Blues
TTITLE9=Spoonfull
TTITLE10=Little Rachel
TTITLE11=All Your Love
TTITLE12=I Loved Another Woman
TTITLE13=Sleepy Time Time
TTITLE14=Blues Blue Sky
EXTD=YEAR: 1999
EXTT0=
EXTT1=
EXTT2=
EXTT3=
EXTT4=
EXTT5=
EXTT6=
EXTT7=
EXTT8=
EXTT9=
EXTT10=
EXTT11=
EXTT12=
EXTT13=
EXTT14=
PLAYORDER=
